<svg width="60" height="56" viewBox="0 0 60 56" fill="none" xmlns="http://www.w3.org/2000/svg">
<circle cx="28.9992" cy="28.0002" r="23.8" fill="#600487"/>
<path d="M31.1016 17.4551C31.9448 17.0361 32.8949 16.7999 33.9004 16.7998C37.3797 16.7998 40.2001 19.6203 40.2002 23.0996C40.2002 24.1056 39.9633 25.0558 39.5439 25.8994H54.2012V30.0996H38.9746L42.8105 33.9492V39.8994L33.0449 30.0996H31.1016V53.2002H26.9014V30.0996H25.6582L15.8916 39.8994V33.9502L19.7285 30.0996H3.80078V25.8994H18.457C18.0377 25.0559 17.8008 24.1055 17.8008 23.0996C17.8009 19.6204 20.6214 16.8 24.1006 16.7998C25.1068 16.7998 26.0577 17.0366 26.9014 17.4561V2.7998H31.1016V17.4551ZM24.1006 21C22.9411 21.0003 22.0011 21.9401 22.001 23.0996C22.001 24.2592 22.9411 25.1999 24.1006 25.2002C25.2604 25.2002 26.2011 24.2594 26.2012 23.0996C26.2011 21.9399 25.2603 21 24.1006 21ZM33.9004 21C32.7409 21.0003 31.8009 21.9401 31.8008 23.0996C31.8008 24.2592 32.7409 25.1999 33.9004 25.2002C35.0602 25.2002 36.001 24.2594 36.001 23.0996C36.0009 21.9399 35.0601 21 33.9004 21Z" fill="#00CA73"/>
<path d="M29 0C44.464 0 57 12.536 57 28C57 43.464 44.464 56 29 56C13.536 56 1 43.464 1 28C1 12.536 13.536 0 29 0ZM29 4.2002C15.8557 4.20027 5.2002 14.8557 5.2002 28C5.2002 41.1443 15.8557 51.7997 29 51.7998C42.1444 51.7998 52.7998 41.1444 52.7998 28C52.7998 14.8556 42.1444 4.2002 29 4.2002Z" fill="#00CA73"/>
<path d="M54.5714 4.94938V6.98085H53.6753V1.87141H55.4286C56.0779 1.87141 56.5801 2.00684 56.9351 2.2777C57.29 2.54036 57.4675 2.91792 57.4675 3.4104C57.4675 3.90287 57.1948 4.28044 56.6494 4.54309C57.1688 4.74008 57.4329 5.15048 57.4416 5.77428C57.4416 6.34063 57.4762 6.70999 57.5455 6.88235V6.98085H56.6234C56.5628 6.8249 56.5325 6.53762 56.5325 6.11902C56.5325 5.83174 56.5281 5.63885 56.5195 5.54036C56.4589 5.16279 56.1818 4.9658 55.6883 4.94938H54.5714ZM54.5714 4.17373H55.5584C55.8615 4.16553 56.1039 4.09576 56.2857 3.96443C56.4762 3.83311 56.5714 3.66074 56.5714 3.44733C56.5714 3.15185 56.4848 2.94254 56.3117 2.81943C56.1472 2.69631 55.8571 2.63475 55.4416 2.63475H54.5714V4.17373ZM55.5065 9C54.6667 9 53.9004 8.79891 53.2078 8.39672C52.5238 7.98632 51.9827 7.43639 51.5844 6.74692C51.1948 6.05746 51 5.30643 51 4.49384C51 3.66484 51.1948 2.90971 51.5844 2.22845C51.9827 1.53899 52.5238 0.997264 53.2078 0.603283C53.9004 0.201094 54.6667 0 55.5065 0C56.3377 0 57.0952 0.201094 57.7792 0.603283C58.4719 0.997264 59.013 1.53899 59.4026 2.22845C59.8009 2.90971 60 3.66484 60 4.49384C60 5.30643 59.8009 6.05746 59.4026 6.74692C59.0043 7.43639 58.4632 7.98632 57.7792 8.39672C57.0952 8.79891 56.3377 9 55.5065 9ZM55.5065 8.28591C56.1905 8.28591 56.8182 8.11765 57.3896 7.78112C57.9697 7.4446 58.4286 6.98906 58.7662 6.4145C59.1039 5.83174 59.2727 5.19152 59.2727 4.49384C59.2727 3.79617 59.1039 3.16005 58.7662 2.5855C58.4372 2.01094 57.9827 1.55951 57.4026 1.23119C56.8312 0.894664 56.1991 0.726402 55.5065 0.726402C54.8139 0.726402 54.1775 0.89056 53.5974 1.21888C53.026 1.5472 52.5714 2.00274 52.2338 2.5855C51.8961 3.16005 51.7273 3.79617 51.7273 4.49384C51.7273 5.19973 51.8961 5.84405 52.2338 6.42681C52.5714 7.00137 53.026 7.45691 53.5974 7.79343C54.1775 8.12175 54.8139 8.28591 55.5065 8.28591Z" fill="black"/>
</svg>
