<svg width="24" height="24" viewBox="0 0 24 24" fill="none" xmlns="http://www.w3.org/2000/svg">
<path fill-rule="evenodd" clip-rule="evenodd" d="M12.0001 4C12.4139 4 12.7493 4.33543 12.7493 4.7492V11.2509H19.2508C19.6646 11.2509 20 11.5863 20 12.0001C20 12.4139 19.6646 12.7493 19.2508 12.7493H12.7493V19.2508C12.7493 19.6646 12.4139 20 12.0001 20C11.5863 20 11.2509 19.6646 11.2509 19.2508V12.7493H4.7492C4.33543 12.7493 4 12.4139 4 12.0001C4 11.5863 4.33543 11.2509 4.7492 11.2509H11.2509V4.7492C11.2509 4.33543 11.5863 4 12.0001 4Z" fill="white"/>
</svg>
