<svg width="40" height="40" viewBox="0 0 40 40" fill="none" xmlns="http://www.w3.org/2000/svg">
<path d="M23.333 3.75C25.8642 3.75 27.9168 5.80185 27.917 8.33301C27.917 9.08369 27.735 9.79155 27.415 10.417H32.5C34.5711 10.417 36.25 12.0959 36.25 14.167V15.834C36.2498 17.1335 35.5883 18.2784 34.584 18.9512V31.666C34.584 34.1972 32.5311 36.2498 30 36.25H10C7.46884 36.2498 5.41699 34.1972 5.41699 31.666V18.9512C4.41228 18.2785 3.75023 17.1338 3.75 15.834V14.167C3.75 12.0959 5.42893 10.417 7.5 10.417H12.585C12.2651 9.79157 12.083 9.08365 12.083 8.33301C12.0832 5.80208 14.1351 3.75037 16.666 3.75C17.9799 3.75 19.1641 4.30374 20 5.18945C20.8356 4.3038 22.0193 3.75009 23.333 3.75ZM24.584 33.334C24.584 33.4754 24.5703 33.614 24.5508 33.75H30C31.1504 33.7498 32.084 32.8165 32.084 31.666V19.584H24.584V33.334ZM18.334 12.917C18.1039 12.917 17.917 13.1039 17.917 13.334V33.334C17.9174 33.5638 18.1041 33.75 18.334 33.75H21.667C21.8967 33.7498 22.0836 33.5637 22.084 33.334V18.3516C22.0839 18.3457 22.083 18.3399 22.083 18.334C22.083 18.3279 22.0839 18.3215 22.084 18.3154V13.334C22.084 13.1327 21.9408 12.9638 21.751 12.9248L21.667 12.917H18.334ZM7.91699 19.584V31.666C7.91699 32.8165 8.84956 33.7498 10 33.75H15.4492C15.4297 33.614 15.417 33.4754 15.417 33.334V19.584H7.91699ZM24.5508 12.917C24.5703 13.0532 24.584 13.1924 24.584 13.334V17.084H32.5C33.1901 17.084 33.7496 16.524 33.75 15.834V14.167C33.75 13.4766 33.1904 12.917 32.5 12.917H24.5508ZM7.5 12.917C6.80964 12.917 6.25 13.4766 6.25 14.167V15.834C6.25037 16.524 6.80987 17.084 7.5 17.084H15.417V13.334C15.417 13.1924 15.4297 13.0532 15.4492 12.917H7.5ZM16.666 6.25C15.5158 6.25037 14.5832 7.18279 14.583 8.33301C14.583 9.48337 15.5157 10.4166 16.666 10.417H18.75V8.33301C18.7498 7.18256 17.8165 6.25 16.666 6.25ZM23.333 6.25C22.1827 6.25018 21.2502 7.18267 21.25 8.33301V10.417H23.333C24.4836 10.417 25.417 9.4836 25.417 8.33301C25.4168 7.18256 24.4835 6.25 23.333 6.25Z" fill="url(#paint0_linear_8958_6318)"/>
<defs>
<linearGradient id="paint0_linear_8958_6318" x1="20" y1="3.75" x2="20" y2="36.25" gradientUnits="userSpaceOnUse">
<stop stop-color="#8030A2"/>
<stop offset="1" stop-color="#36064A"/>
</linearGradient>
</defs>
</svg>
