<svg width="32" height="32" viewBox="0 0 32 32" fill="none" xmlns="http://www.w3.org/2000/svg">
<path fill-rule="evenodd" clip-rule="evenodd" d="M28.0853 26.3787L24.5453 10.3787C24.4107 9.768 23.8693 9.33333 23.244 9.33333H8.756C8.13067 9.33333 7.58933 9.768 7.45467 10.3787L3.91467 26.3787C3.73067 27.2107 4.364 28 5.216 28H26.784C27.636 28 28.2693 27.2107 28.0853 26.3787V26.3787Z" stroke="black" stroke-width="1.5" stroke-linecap="round" stroke-linejoin="round"/>
<path d="M19.3333 9.33333V6V6V6C19.3333 4.15867 17.8413 2.66667 16 2.66667H15.9987C14.1573 2.66667 12.6653 4.15867 12.6653 6V6V6V9.33333" stroke="black" stroke-width="1.5" stroke-linecap="round" stroke-linejoin="round"/>
<path d="M24.2133 9.78667L20.1867 28" stroke="black" stroke-width="1.5" stroke-linecap="round" stroke-linejoin="round"/>
</svg>
