<svg width="32" height="32" viewBox="0 0 32 32" fill="none" xmlns="http://www.w3.org/2000/svg">
<path fill-rule="evenodd" clip-rule="evenodd" d="M28.0855 26.3788L24.5455 10.3788C24.4108 9.76816 23.8695 9.3335 23.2441 9.3335H8.75612C8.13079 9.3335 7.58946 9.76816 7.45479 10.3788L3.91479 26.3788C3.73079 27.2108 4.36412 28.0002 5.21612 28.0002H26.7841C27.6361 28.0002 28.2695 27.2108 28.0855 26.3788V26.3788Z" fill="#F8E9FF"/>
<path d="M20 28L24 10L28.1894 26.7575C28.3472 27.3886 27.8698 28 27.2192 28H20Z" fill="#8030A2"/>
<path fill-rule="evenodd" clip-rule="evenodd" d="M28.0855 26.3788L24.5455 10.3788C24.4108 9.76816 23.8695 9.3335 23.2441 9.3335H8.75612C8.13079 9.3335 7.58946 9.76816 7.45479 10.3788L3.91479 26.3788C3.73079 27.2108 4.36412 28.0002 5.21612 28.0002H26.7841C27.6361 28.0002 28.2695 27.2108 28.0855 26.3788V26.3788Z" stroke="#010101" stroke-width="1.5" stroke-linecap="round" stroke-linejoin="round"/>
<path d="M19.3333 9.33317V5.99984V5.99984V5.99984C19.3333 4.1585 17.8413 2.6665 15.9999 2.6665H15.9986C14.1573 2.6665 12.6653 4.1585 12.6653 5.99984V5.99984V5.99984V9.33317" stroke="#010101" stroke-width="1.5" stroke-linecap="round" stroke-linejoin="round"/>
<path d="M24.2134 9.78662L20.1868 28" stroke="#010101" stroke-width="1.5" stroke-linecap="round" stroke-linejoin="round"/>
</svg>
