<svg width="40" height="40" viewBox="0 0 40 40" fill="none" xmlns="http://www.w3.org/2000/svg">
<path d="M28.3369 10.4131C29.027 10.4133 29.5868 10.9729 29.5869 11.6631V13.748H30.4219C33.6441 13.7486 36.2567 16.3607 36.2568 19.583C36.2568 21.0636 35.6123 22.393 34.5898 23.3086V33.7568H36.6738C37.364 33.7571 37.9238 34.3166 37.9238 35.0068C37.9234 35.6967 37.3637 36.2566 36.6738 36.2568H3.32617C2.63608 36.2568 2.0766 35.6968 2.07617 35.0068C2.07617 34.3165 2.63582 33.7568 3.32617 33.7568H5.41113V23.3086C4.38841 22.393 3.74414 21.0639 3.74414 19.583C3.74429 16.3605 6.35661 13.7482 9.5791 13.748H10.4141V11.6631C10.4142 10.9728 10.9738 10.4131 11.6641 10.4131C12.354 10.4135 12.9139 10.9731 12.9141 11.6631V13.748H18.751V11.6631C18.7511 10.9728 19.3107 10.4131 20.001 10.4131C20.6909 10.4135 21.2508 10.9731 21.251 11.6631V13.748H27.0869V11.6631C27.087 10.9728 27.6466 10.4131 28.3369 10.4131ZM7.91113 33.7568H32.0898V30.4209H7.91113V33.7568ZM27.7373 23.1387C27.6068 23.0135 27.4001 23.0137 27.2695 23.1387C26.3345 24.0656 25.0702 24.5849 23.7529 24.584H23.752L23.75 24.585V24.584C22.433 24.5848 21.1693 24.0653 20.2344 23.1387L20.1816 23.0977C20.053 23.0155 19.8809 23.0293 19.7666 23.1387L19.7656 23.1377C18.8304 24.0648 17.5667 24.5851 16.249 24.584L16.25 24.585L16.248 24.584L16.2471 24.585V24.584C14.9296 24.5848 13.6655 24.0649 12.7305 23.1377C12.5999 23.0131 12.3941 23.0139 12.2637 23.1387L12.2627 23.1377C11.3275 24.0649 10.0637 24.586 8.74609 24.585L8.74512 24.584L8.74414 24.585V24.584C8.46038 24.5839 8.18199 24.5582 7.91113 24.5127V27.9209H32.0898V24.5127C31.8185 24.5583 31.5401 24.5839 31.2559 24.584C29.9376 24.5855 28.6729 24.0653 27.7373 23.1377V23.1387ZM9.5791 16.248C7.73732 16.2482 6.24429 17.7412 6.24414 19.583C6.24414 20.9646 7.36452 22.085 8.74609 22.085V22.7646L8.74707 22.085C9.40949 22.0857 10.0459 21.8225 10.5137 21.3535L10.5332 21.334C11.5622 20.3475 13.1493 20.2853 14.248 21.1484L14.4609 21.334L14.4814 21.3535C14.9493 21.8223 15.5848 22.0858 16.2471 22.085L16.249 23.0439L16.25 22.085C16.9124 22.0857 17.5488 21.8225 18.0166 21.3535L18.0361 21.334C19.0651 20.3475 20.6522 20.2854 21.751 21.1484L21.9639 21.334L21.9844 21.3535C22.4522 21.8223 23.0877 22.0857 23.75 22.085L23.752 23.0439L23.7539 22.085C24.4161 22.0856 25.0518 21.8223 25.5195 21.3535L25.54 21.334C26.5692 20.3475 28.1562 20.285 29.2549 21.1484L29.4678 21.334L29.4873 21.3535C29.9552 21.8224 30.5915 22.0858 31.2539 22.085L31.2549 22.7646V22.085C32.6362 22.0847 33.7568 20.9644 33.7568 19.583C33.7567 17.7415 32.2633 16.2486 30.4219 16.248H9.5791ZM11.6641 3.74414C12.3541 3.74457 12.9141 4.30405 12.9141 4.99414V6.66113C12.9138 7.351 12.3539 7.91071 11.6641 7.91113C10.9739 7.91113 10.4143 7.35126 10.4141 6.66113V4.99414C10.4141 4.30378 10.9737 3.74414 11.6641 3.74414ZM20 3.74414C20.6902 3.7443 21.25 4.30389 21.25 4.99414V6.66113C21.2497 7.35116 20.6901 7.91097 20 7.91113C19.3098 7.91113 18.7503 7.35126 18.75 6.66113V4.99414C18.75 4.30378 19.3096 3.74414 20 3.74414ZM28.3369 3.74414C29.0271 3.7443 29.5869 4.30389 29.5869 4.99414V6.66113C29.5867 7.35116 29.027 7.91097 28.3369 7.91113C27.6467 7.91113 27.0872 7.35126 27.0869 6.66113V4.99414C27.0869 4.30378 27.6466 3.74414 28.3369 3.74414Z" fill="url(#paint0_linear_8958_6331)"/>
<defs>
<linearGradient id="paint0_linear_8958_6331" x1="37.5" y1="36" x2="-0.269237" y2="7.69409" gradientUnits="userSpaceOnUse">
<stop stop-color="#C64204"/>
<stop offset="1" stop-color="#F04C00"/>
</linearGradient>
</defs>
</svg>
