<svg width="24" height="24" viewBox="0 0 24 24" fill="none" xmlns="http://www.w3.org/2000/svg">
<path fill-rule="evenodd" clip-rule="evenodd" d="M17.0304 2.46888C17.1002 2.53854 17.1556 2.62131 17.1935 2.71243C17.2313 2.80354 17.2507 2.90122 17.2507 2.99988C17.2507 3.09853 17.2313 3.19621 17.1935 3.28733C17.1556 3.37844 17.1002 3.46121 17.0304 3.53088L8.55989 11.9999L17.0304 20.4689C17.1712 20.6097 17.2503 20.8007 17.2503 20.9999C17.2503 21.199 17.1712 21.39 17.0304 21.5309C16.8896 21.6717 16.6986 21.7508 16.4994 21.7508C16.3002 21.7508 16.1092 21.6717 15.9684 21.5309L6.96839 12.5309C6.89854 12.4612 6.84313 12.3784 6.80532 12.2873C6.76751 12.1962 6.74805 12.0985 6.74805 11.9999C6.74805 11.9012 6.76751 11.8035 6.80532 11.7124C6.84313 11.6213 6.89854 11.5385 6.96839 11.4689L15.9684 2.46888C16.0381 2.39903 16.1208 2.34362 16.2119 2.30581C16.3031 2.268 16.4007 2.24854 16.4994 2.24854C16.598 2.24854 16.6957 2.268 16.7868 2.30581C16.878 2.34362 16.9607 2.39903 17.0304 2.46888Z" fill="#010101"/>
</svg>
