<svg width="24" height="24" viewBox="0 0 24 24" fill="none" xmlns="http://www.w3.org/2000/svg">
<path fill-rule="evenodd" clip-rule="evenodd" d="M6.96949 1.72034C6.89965 1.79001 6.84423 1.87277 6.80642 1.96389C6.76861 2.05501 6.74915 2.15269 6.74915 2.25134C6.74915 2.34999 6.76861 2.44767 6.80642 2.53879C6.84423 2.62991 6.89965 2.71267 6.96949 2.78234L15.44 11.2513L6.96949 19.7203C6.82866 19.8612 6.74954 20.0522 6.74954 20.2513C6.74954 20.4505 6.82866 20.6415 6.96949 20.7823C7.11032 20.9232 7.30133 21.0023 7.50049 21.0023C7.69965 21.0023 7.89066 20.9232 8.03149 20.7823L17.0315 11.7823C17.1013 11.7127 17.1568 11.6299 17.1946 11.5388C17.2324 11.4477 17.2518 11.35 17.2518 11.2513C17.2518 11.1527 17.2324 11.055 17.1946 10.9639C17.1568 10.8728 17.1013 10.79 17.0315 10.7203L8.03149 1.72034C7.96182 1.6505 7.87906 1.59508 7.78794 1.55727C7.69682 1.51946 7.59914 1.5 7.50049 1.5C7.40184 1.5 7.30416 1.51946 7.21304 1.55727C7.12192 1.59508 7.03916 1.6505 6.96949 1.72034Z" fill="#010101"/>
</svg>
