<svg width="24" height="24" viewBox="0 0 24 24" fill="none" xmlns="http://www.w3.org/2000/svg">
<path fill-rule="evenodd" clip-rule="evenodd" d="M17.0309 2.46906C17.1007 2.53873 17.1561 2.62149 17.1939 2.71261C17.2318 2.80373 17.2512 2.90141 17.2512 3.00006C17.2512 3.09871 17.2318 3.19639 17.1939 3.28751C17.1561 3.37863 17.1007 3.46139 17.0309 3.53106L8.56038 12.0001L17.0309 20.4691C17.1717 20.6099 17.2508 20.8009 17.2508 21.0001C17.2508 21.1992 17.1717 21.3902 17.0309 21.5311C16.89 21.6719 16.699 21.751 16.4999 21.751C16.3007 21.751 16.1097 21.6719 15.9689 21.5311L6.96888 12.5311C6.89903 12.4614 6.84362 12.3786 6.80581 12.2875C6.768 12.1964 6.74854 12.0987 6.74854 12.0001C6.74854 11.9014 6.768 11.8037 6.80581 11.7126C6.84362 11.6215 6.89903 11.5387 6.96888 11.4691L15.9689 2.46906C16.0385 2.39921 16.1213 2.3438 16.2124 2.30599C16.3035 2.26818 16.4012 2.24872 16.4999 2.24872C16.5985 2.24872 16.6962 2.26818 16.7873 2.30599C16.8784 2.3438 16.9612 2.39921 17.0309 2.46906Z" fill="#010101"/>
</svg>
