<svg width="16" height="16" viewBox="0 0 16 16" fill="none" xmlns="http://www.w3.org/2000/svg">
<path fill-rule="evenodd" clip-rule="evenodd" d="M3.33281 3.33339C3.52787 3.13834 3.84411 3.13834 4.03916 3.33339L7.99962 7.29356L11.9598 3.33342C12.1549 3.13837 12.4711 3.13837 12.6662 3.33342C12.8612 3.52848 12.8612 3.84472 12.6662 4.03978L8.70597 7.99992L12.6662 11.9604C12.8612 12.1555 12.8612 12.4717 12.6662 12.6668C12.4711 12.8618 12.1549 12.8618 11.9598 12.6668L7.99962 8.70627L4.0392 12.6668C3.84414 12.8618 3.5279 12.8618 3.33285 12.6668C3.13779 12.4717 3.13779 12.1555 3.33285 11.9604L7.29327 7.99992L3.33281 4.03974C3.13776 3.84469 3.13776 3.52845 3.33281 3.33339Z" fill="black"/>
</svg>
