<svg width="24" height="24" viewBox="0 0 24 24" fill="none" xmlns="http://www.w3.org/2000/svg">
<path d="M4.49707 3.99683H16.0019C17.1069 3.99683 18.0027 4.89263 18.0027 5.99766V16.0018" stroke="#010101" stroke-width="1.5" stroke-linecap="round" stroke-linejoin="round"/>
<path d="M8.99902 8.01608H15.0015" stroke="#010101" stroke-width="1.5" stroke-linecap="round" stroke-linejoin="round"/>
<path d="M8.99902 12.0002H15.0015" stroke="#010101" stroke-width="1.5" stroke-linecap="round" stroke-linejoin="round"/>
<path d="M7.49846 20.0035H19.0032C20.1083 20.0035 21.0041 19.1077 21.0041 18.0027V17.0022C21.0041 16.4497 20.5562 16.0018 20.0037 16.0018H9.9995C9.44698 16.0018 8.99908 16.4497 8.99908 17.0022V18.5029C8.99908 19.3316 8.32723 20.0035 7.49846 20.0035V20.0035C6.66968 20.0035 5.99783 19.3316 5.99783 18.5029V5.49745C5.99783 4.66868 5.32598 3.99683 4.49721 3.99683V3.99683C3.66843 3.99683 2.99658 4.66868 2.99658 5.49745V7.99849C2.99658 8.55101 3.44448 8.99891 3.997 8.99891H5.99783" stroke="#010101" stroke-width="1.5" stroke-linecap="round" stroke-linejoin="round"/>
</svg>
