<svg width="24" height="24" viewBox="0 0 24 24" fill="none" xmlns="http://www.w3.org/2000/svg">
<path d="M3 7H2" stroke="white" stroke-width="1.5" stroke-linecap="round" stroke-linejoin="round"/>
<path d="M4 4H2" stroke="white" stroke-width="1.5" stroke-linecap="round" stroke-linejoin="round"/>
<path d="M17 20H3" stroke="white" stroke-width="1.5" stroke-linecap="round" stroke-linejoin="round"/>
<path d="M17.2744 4.00049L16.2884 7.28749C16.1614 7.71049 15.7714 8.00049 15.3304 8.00049H12.2184C11.5484 8.00049 11.0684 7.35449 11.2604 6.71349L12.0744 4.00049" stroke="white" stroke-width="1.5" stroke-linecap="round" stroke-linejoin="round"/>
<path d="M8 13H10.13" stroke="white" stroke-width="1.5" stroke-linecap="round" stroke-linejoin="round"/>
<path fill-rule="evenodd" clip-rule="evenodd" d="M17.4371 16.0005H6.84907C5.24107 16.0005 4.08807 14.4505 4.55007 12.9105L6.71007 5.71049C7.01507 4.69549 7.94907 4.00049 9.00907 4.00049H19.5981C21.2061 4.00049 22.3591 5.55049 21.8971 7.09049L19.7371 14.2905C19.4321 15.3055 18.4971 16.0005 17.4371 16.0005Z" stroke="white" stroke-width="1.5" stroke-linecap="round" stroke-linejoin="round"/>
</svg>
