<svg width="40" height="40" viewBox="0 0 40 40" fill="none" xmlns="http://www.w3.org/2000/svg">
<path d="M21.666 3.75C24.7269 3.75 27.2718 5.95036 27.8096 8.85547C30.7155 9.39261 32.916 11.9385 32.916 15C32.916 17.398 31.5656 19.4792 29.584 20.5273V21.667C29.5838 26.535 25.9512 30.5531 21.25 31.166V35C21.25 35.6902 20.6902 36.2498 20 36.25C19.3098 36.2498 18.75 35.6902 18.75 35V31.166C14.0487 30.5533 10.4172 26.5351 10.417 21.667V19.3691C8.38755 17.7666 7.08301 15.2862 7.08301 12.5C7.08301 7.6681 11.0012 3.7502 15.833 3.75H21.666ZM12.917 21.667C12.9172 25.578 16.089 28.7498 20 28.75C23.911 28.7498 27.0838 25.578 27.084 21.667V21.2344C26.9459 21.2435 26.8064 21.25 26.666 21.25H15.833C14.8102 21.25 13.8294 21.0717 12.917 20.749V21.667ZM15.833 6.25C12.3819 6.2502 9.58301 9.04881 9.58301 12.5C9.58301 14.6548 10.6744 16.555 12.334 17.6787C12.3481 17.6877 12.3622 17.6966 12.376 17.7061C13.3662 18.3651 14.5546 18.7499 15.833 18.75H26.666C27.1091 18.75 27.5342 18.6723 27.9287 18.5312C27.9412 18.527 27.9532 18.5215 27.9658 18.5176C29.3963 17.9891 30.416 16.6143 30.416 15C30.416 13.307 29.2946 11.8773 27.7539 11.4111C27.114 14.1831 24.6325 16.25 21.666 16.25H16.7959C14.7259 16.2496 13.0459 14.5701 13.0459 12.5C13.0459 10.4299 14.7259 8.75044 16.7959 8.75H20.1797C20.87 8.75001 21.4297 9.30965 21.4297 10C21.4297 10.6904 20.87 11.25 20.1797 11.25H16.7959C16.1066 11.2504 15.5459 11.8106 15.5459 12.5C15.5459 13.1894 16.1066 13.7496 16.7959 13.75H21.666C23.6725 13.75 25.3105 12.1748 25.4111 10.1934L25.416 10L25.4111 9.80664C25.3105 7.82523 23.6725 6.25 21.666 6.25H15.833Z" fill="url(#paint0_linear_8958_6326)"/>
<defs>
<linearGradient id="paint0_linear_8958_6326" x1="32.5" y1="36" x2="15.807" y2="0.133738" gradientUnits="userSpaceOnUse">
<stop stop-color="#860000"/>
<stop offset="1" stop-color="#C62222"/>
</linearGradient>
</defs>
</svg>
