<svg width="40" height="40" viewBox="0 0 40 40" fill="none" xmlns="http://www.w3.org/2000/svg">
<path d="M30.0046 7.07666C30.6949 7.07666 31.2546 7.6363 31.2546 8.32666V9.57788H32.5056C33.196 9.57788 33.7556 10.1375 33.7556 10.8279C33.7556 11.5182 33.196 12.0779 32.5056 12.0779H31.2546V13.3287C31.2546 14.0191 30.6949 14.5787 30.0046 14.5787C29.3142 14.5787 28.7546 14.0191 28.7546 13.3287V12.0779H27.5035C26.8132 12.0779 26.2535 11.5182 26.2535 10.8279C26.2535 10.1375 26.8132 9.57788 27.5035 9.57788H28.7546V8.32666C28.7546 7.6363 29.3142 7.07666 30.0046 7.07666Z" fill="url(#paint0_linear_8958_6352)"/>
<path d="M23.3685 8.03656C18.6353 5.9961 13.1239 7.30327 9.81133 11.2521C6.49877 15.2009 6.17024 20.8554 9.00323 25.1612C11.8362 29.4671 17.1591 31.4036 22.0968 29.9249C23.5767 29.4818 24.9168 28.7633 26.0681 27.8356L30.7825 32.55C31.2706 33.0381 32.0621 33.0381 32.5502 32.55C33.0384 32.0618 33.0384 31.2704 32.5502 30.7822L27.8354 26.0674C29.4654 24.0436 30.4165 21.482 30.4163 18.7486C30.4163 18.0583 29.8566 17.4987 29.1663 17.4987C28.4759 17.4987 27.9163 18.0584 27.9163 18.7488C27.9165 21.1412 26.9891 23.3662 25.43 25.0262C25.35 25.0759 25.2745 25.1354 25.2051 25.2048C25.1355 25.2744 25.0759 25.3501 25.0262 25.4302C24.0135 26.382 22.7757 27.1119 21.3796 27.53C17.4999 28.6918 13.3176 27.1702 11.0917 23.7871C8.86587 20.4041 9.12398 15.9614 11.7267 12.8588C14.3293 9.75618 18.6598 8.72907 22.3788 10.3323C23.0127 10.6056 23.7482 10.3132 24.0215 9.67929C24.2948 9.04533 24.0024 8.30986 23.3685 8.03656Z" fill="url(#paint1_linear_8958_6352)"/>
<path d="M23.7507 14.9994C23.7507 14.3091 23.191 13.7494 22.5007 13.7494C21.8103 13.7494 21.2507 14.3091 21.2507 14.9994V16.2507H19.9997C19.3093 16.2507 18.7497 16.8103 18.7497 17.5007C18.7497 18.191 19.3093 18.7507 19.9997 18.7507H21.2507V20.0015C21.2507 20.6919 21.8103 21.2515 22.5007 21.2515C23.191 21.2515 23.7507 20.6919 23.7507 20.0015V18.7507H25.0018C25.6921 18.7507 26.2518 18.191 26.2518 17.5007C26.2518 16.8103 25.6921 16.2507 25.0018 16.2507H23.7507V14.9994Z" fill="url(#paint2_linear_8958_6352)"/>
<defs>
<linearGradient id="paint0_linear_8958_6352" x1="33.9996" y1="32.9994" x2="6.20237" y2="7.8817" gradientUnits="userSpaceOnUse">
<stop stop-color="#600487"/>
<stop offset="1" stop-color="#C62222"/>
</linearGradient>
<linearGradient id="paint1_linear_8958_6352" x1="33.9996" y1="32.9994" x2="6.20237" y2="7.8817" gradientUnits="userSpaceOnUse">
<stop stop-color="#600487"/>
<stop offset="1" stop-color="#C62222"/>
</linearGradient>
<linearGradient id="paint2_linear_8958_6352" x1="33.9996" y1="32.9994" x2="6.20237" y2="7.8817" gradientUnits="userSpaceOnUse">
<stop stop-color="#600487"/>
<stop offset="1" stop-color="#C62222"/>
</linearGradient>
</defs>
</svg>
