<svg width="24" height="24" viewBox="0 0 24 24" fill="none" xmlns="http://www.w3.org/2000/svg">
<path fill-rule="evenodd" clip-rule="evenodd" d="M9.58582 19L11.2929 20.7071C11.6834 21.0976 12.3166 21.0976 12.7071 20.7071L14.4142 19H18C19.6569 19 21 17.6569 21 16V6C21 4.34315 19.6569 3 18 3H6C4.34315 3 3 4.34315 3 6V16C3 17.6569 4.34315 19 6 19H9.58582Z" stroke="#010101" stroke-width="1.5" stroke-linecap="round" stroke-linejoin="round"/>
<path d="M12 11V14" stroke="#010101" stroke-width="1.5" stroke-linecap="round" stroke-linejoin="round"/>
<path d="M12.0005 8C12.0695 8.00027 12.1252 8.05635 12.125 8.12532C12.1248 8.19429 12.0688 8.25009 11.9998 8.25C11.9309 8.24991 11.875 8.19398 11.875 8.125C11.8748 8.09171 11.888 8.05974 11.9116 8.03625C11.9352 8.01275 11.9672 7.9997 12.0005 8" stroke="#010101" stroke-width="1.5" stroke-linecap="round" stroke-linejoin="round"/>
</svg>
