<svg width="32" height="32" viewBox="0 0 32 32" fill="none" xmlns="http://www.w3.org/2000/svg">
<path d="M6.66666 8.33105C6.11437 8.33105 5.66666 8.77877 5.66666 9.33105C5.66666 9.88334 6.11437 10.3311 6.66666 10.3311H25.3333C25.8856 10.3311 26.3333 9.88334 26.3333 9.33105C26.3333 8.77877 25.8856 8.33105 25.3333 8.33105H6.66666Z" fill="black"/>
<path d="M5.66666 15.9997C5.66666 15.4474 6.11437 14.9997 6.66666 14.9997H25.3333C25.8856 14.9997 26.3333 15.4474 26.3333 15.9997C26.3333 16.552 25.8856 16.9997 25.3333 16.9997H6.66666C6.11437 16.9997 5.66666 16.552 5.66666 15.9997Z" fill="black"/>
<path d="M5.66666 22.6686C5.66666 22.1163 6.11437 21.6686 6.66666 21.6686H25.3333C25.8856 21.6686 26.3333 22.1163 26.3333 22.6686C26.3333 23.2209 25.8856 23.6686 25.3333 23.6686H6.66666C6.11437 23.6686 5.66666 23.2209 5.66666 22.6686Z" fill="black"/>
</svg>
