<svg width="40" height="40" viewBox="0 0 40 40" fill="none" xmlns="http://www.w3.org/2000/svg">
<path d="M27.5029 3.74316C28.1931 3.74333 28.7529 4.30389 28.7529 4.99414V6.24512H30.0068C33.4583 6.24545 36.2568 9.04355 36.2568 12.4951V30.0068C36.2564 33.4581 33.4581 36.2565 30.0068 36.2568H9.99414C6.54261 36.2568 3.74455 33.4583 3.74414 30.0068V12.4951C3.74414 9.04334 6.54236 6.24512 9.99414 6.24512H11.2471V4.99414C11.2471 4.30385 11.8068 3.74326 12.4971 3.74316C13.1873 3.74333 13.7471 4.30389 13.7471 4.99414V6.24512H26.2529V4.99414C26.2529 4.30393 26.8128 3.74339 27.5029 3.74316ZM9.99414 8.74512C7.92307 8.74512 6.24414 10.4241 6.24414 12.4951V30.0068C6.24455 32.0776 7.92332 33.7568 9.99414 33.7568H30.0068C32.0774 33.7565 33.7564 32.0774 33.7568 30.0068V12.4951C33.7568 10.4243 32.0776 8.74545 30.0068 8.74512H28.7529V9.99609C28.7527 10.6861 28.193 11.2459 27.5029 11.2461C26.8129 11.2459 26.2532 10.6861 26.2529 9.99609V8.74512H13.7471V9.99609C13.7468 10.6861 13.1871 11.2459 12.4971 11.2461C11.807 11.246 11.2473 10.6862 11.2471 9.99609V8.74512H9.99414ZM15.1895 17.083C16.609 17.0833 17.8695 17.9922 18.3184 19.3389C18.6844 20.4378 18.4472 21.6488 17.6934 22.5283L15.2148 25.4199H17.499C18.1893 25.42 18.749 25.9796 18.749 26.6699C18.7488 27.36 18.1891 27.9198 17.499 27.9199H12.4971C12.0091 27.9199 11.5654 27.6356 11.3613 27.1924C11.1574 26.749 11.2304 26.2271 11.5479 25.8564L15.7949 20.9014C15.9774 20.6885 16.0348 20.3949 15.9463 20.1289C15.8376 19.8031 15.5328 19.5833 15.1895 19.583H14.1641L14.0801 19.5908C13.89 19.6297 13.7472 19.7985 13.7471 20C13.7469 20.6901 13.1872 21.2499 12.4971 21.25C11.8068 21.25 11.2473 20.6902 11.2471 20C11.2473 18.3891 12.5531 17.0832 14.1641 17.083H15.1895ZM25.1934 17.083C26.613 17.0832 27.8733 17.9921 28.3223 19.3389C28.6883 20.4379 28.4511 21.6488 27.6973 22.5283L25.2188 25.4199H27.5029C28.1933 25.4199 28.7529 25.9796 28.7529 26.6699C28.7527 27.3601 28.1931 27.9199 27.5029 27.9199H22.501C22.013 27.9199 21.5693 27.6356 21.3652 27.1924C21.1613 26.7491 21.2344 26.2271 21.5518 25.8564L25.7988 20.9014C25.9813 20.6885 26.0388 20.3949 25.9502 20.1289C25.8415 19.8031 25.5368 19.5832 25.1934 19.583H24.168L24.084 19.5908C23.8941 19.6298 23.7512 19.7986 23.751 20C23.7508 20.6902 23.1912 21.25 22.501 21.25C21.8108 21.2499 21.2512 20.6901 21.251 20C21.2512 18.3891 22.5571 17.0833 24.168 17.083H25.1934Z" fill="url(#paint0_linear_8958_6308)"/>
<defs>
<linearGradient id="paint0_linear_8958_6308" x1="3.66669" y1="4" x2="36.6667" y2="36" gradientUnits="userSpaceOnUse">
<stop stop-color="#0076DC"/>
<stop offset="1" stop-color="#004C8E"/>
</linearGradient>
</defs>
</svg>
