<svg width="24" height="24" viewBox="0 0 24 24" fill="none" xmlns="http://www.w3.org/2000/svg">
<rect x="2.99609" y="4.49683" width="18.0075" height="16.5069" rx="3" fill="#F8E9FF" stroke="#36064A" stroke-width="1.5" stroke-linecap="round" stroke-linejoin="round"/>
<path d="M7.49826 2.99634V5.99759" stroke="#36064A" stroke-width="2" stroke-linecap="round" stroke-linejoin="round"/>
<path d="M16.5022 2.99609V5.99734" stroke="#36064A" stroke-width="2" stroke-linecap="round" stroke-linejoin="round"/>
<rect x="2.99609" y="4.49683" width="18.0075" height="16.5069" rx="3" stroke="#36064A" stroke-width="2" stroke-linecap="round" stroke-linejoin="round"/>
<path d="M8.49846 10.9995H9.1132C9.64225 10.9995 10.1119 11.338 10.2792 11.8399V11.8399C10.4158 12.2495 10.3274 12.7007 10.0464 13.0285L7.49805 16.0016H10.4993" stroke="#36064A" stroke-width="2" stroke-linecap="round" stroke-linejoin="round"/>
<path d="M7.49805 11.9999C7.49805 11.4474 7.94595 10.9995 8.49846 10.9995" stroke="#36064A" stroke-width="2" stroke-linecap="round" stroke-linejoin="round"/>
<path d="M14.5004 10.9995H15.1152C15.6442 10.9995 16.1139 11.338 16.2812 11.8399V11.8399C16.4177 12.2495 16.3293 12.7007 16.0484 13.0285L13.5 16.0016H16.5013" stroke="#36064A" stroke-width="2" stroke-linecap="round" stroke-linejoin="round"/>
<path d="M13.5 11.9999C13.5 11.4474 13.9479 10.9995 14.5004 10.9995" stroke="#36064A" stroke-width="2" stroke-linecap="round" stroke-linejoin="round"/>
</svg>
