<svg width="24" height="24" viewBox="0 0 24 24" fill="none" xmlns="http://www.w3.org/2000/svg">
<path fill-rule="evenodd" clip-rule="evenodd" d="M18.965 16.6102L17.792 15.4372C17.206 14.8512 16.256 14.8512 15.671 15.4372L14.749 16.3592C14.543 16.5652 14.231 16.6342 13.965 16.5172C12.629 15.9322 11.309 15.0452 10.132 13.8682C8.96002 12.6962 8.07602 11.3822 7.49002 10.0512C7.36802 9.77621 7.43902 9.45321 7.65202 9.24021L8.47802 8.41421C9.14902 7.74321 9.14902 6.79421 8.56302 6.20821L7.39002 5.03521C6.60902 4.25421 5.34302 4.25421 4.56202 5.03521L3.91002 5.68621C3.16902 6.42721 2.86002 7.49621 3.06002 8.55621C3.55402 11.1692 5.07202 14.0302 7.52102 16.4792C9.97002 18.9282 12.831 20.4462 15.444 20.9402C16.504 21.1402 17.573 20.8312 18.314 20.0902L18.965 19.4392C19.746 18.6582 19.746 17.3922 18.965 16.6102V16.6102Z" stroke="#010101" stroke-width="1.5" stroke-linecap="round" stroke-linejoin="round"/>
<path d="M13 6.99109C14.031 6.97709 15.067 7.35909 15.854 8.14609" stroke="#010101" stroke-width="1.5" stroke-linecap="round" stroke-linejoin="round"/>
<path d="M18.682 5.31811C17.113 3.74911 15.056 2.96411 13 2.96411" stroke="#010101" stroke-width="1.5" stroke-linecap="round" stroke-linejoin="round"/>
<path d="M17.009 11C17.023 9.969 16.641 8.933 15.854 8.146" stroke="#010101" stroke-width="1.5" stroke-linecap="round" stroke-linejoin="round"/>
<path d="M18.6821 5.31812C20.2511 6.88712 21.0361 8.94412 21.0361 11.0001" stroke="#010101" stroke-width="1.5" stroke-linecap="round" stroke-linejoin="round"/>
</svg>
