<svg width="16" height="16" viewBox="0 0 16 16" fill="none" xmlns="http://www.w3.org/2000/svg">
<path d="M8.00008 2.16675C4.77861 2.16675 2.16675 4.77861 2.16675 8.00008C2.16675 11.2216 4.77861 13.8334 8.00008 13.8334C11.2216 13.8334 13.8334 11.2216 13.8334 8.00008C13.8334 7.72394 13.6096 7.50008 13.3334 7.50008C13.0573 7.50008 12.8334 7.72394 12.8334 8.00008C12.8334 10.6693 10.6693 12.8334 8.00008 12.8334C5.33089 12.8334 3.16675 10.6693 3.16675 8.00008C3.16675 5.33089 5.33089 3.16675 8.00008 3.16675C9.51186 3.16675 10.8622 3.8613 11.7489 4.95003H10.6353C10.3592 4.95003 10.1353 5.17388 10.1353 5.45003C10.1353 5.72617 10.3592 5.95003 10.6353 5.95003H12.6729C12.6811 5.95023 12.6893 5.95023 12.6974 5.95003H12.992C13.2681 5.95003 13.492 5.72617 13.492 5.45003V3.09269C13.492 2.81655 13.2681 2.59269 12.992 2.59269C12.7159 2.59269 12.492 2.81655 12.492 3.09269V4.27937C11.4225 2.98954 9.80762 2.16675 8.00008 2.16675Z" fill="#323232"/>
</svg>
