<svg width="24" height="24" viewBox="0 0 24 24" fill="none" xmlns="http://www.w3.org/2000/svg">
<path fill-rule="evenodd" clip-rule="evenodd" d="M4.84799 3.60164C5.10639 3.6182 5.33797 3.76689 5.46059 3.99495C6.34993 5.64911 7.89064 7.15665 9.55682 7.85037C9.75872 6.78236 10.2345 5.83388 10.9521 5.10054C11.8857 4.14656 13.1869 3.6001 14.7 3.6001C15.6994 3.6001 16.5426 3.79119 17.2551 4.17143C17.84 4.48355 18.3054 4.90643 18.686 5.4001H21C21.2766 5.4001 21.5307 5.55234 21.6613 5.79621C21.7918 6.04008 21.7775 6.33598 21.624 6.56613L19.9485 9.07948C19.9057 12.2725 18.9671 15.0776 17.1749 17.1088C15.3296 19.2002 12.6407 20.4001 9.30001 20.4001C7.35543 20.4001 5.9411 19.8882 4.83816 19.1077C3.75813 18.3435 3.01928 17.3481 2.39435 16.4925C2.24132 16.2829 2.20745 16.0092 2.3048 15.7687C2.39166 15.5541 2.57198 15.3932 2.79145 15.3297L2.80469 15.3254L2.88988 15.2976C2.96458 15.273 3.07043 15.2379 3.19749 15.1957C3.45141 15.1113 3.78755 14.9991 4.12315 14.8869C4.21412 14.8565 4.30503 14.8261 4.39421 14.7963C1.87614 11.5436 1.86531 7.16076 4.19019 3.9135C4.34092 3.70297 4.58959 3.58507 4.84799 3.60164ZM5.93826 15.8613L5.52031 16.0012C5.26938 16.0852 4.93446 16.1973 4.59861 16.3096C4.47412 16.3512 4.34945 16.3928 4.22886 16.4331C4.66397 16.9785 5.12895 17.4759 5.7046 17.8832C6.53741 18.4726 7.64459 18.9001 9.30001 18.9001C12.2593 18.9001 14.5204 17.85 16.0501 16.1164C17.5901 14.3711 18.45 11.8621 18.45 8.8501C18.45 8.70203 18.4938 8.55728 18.576 8.43408L19.5986 6.9001H18.3C18.0479 6.9001 17.8126 6.7734 17.6738 6.56287C17.3617 6.08946 17.0003 5.73567 16.5489 5.49477C16.0959 5.25301 15.5057 5.1001 14.7 5.1001C13.5621 5.1001 12.6564 5.50365 12.0242 6.14966C11.388 6.79978 10.9872 7.7389 10.9496 8.8749C10.9421 9.10051 10.8334 9.31077 10.6537 9.44732C10.4739 9.58387 10.2422 9.6322 10.0229 9.57889C7.94982 9.07506 6.06068 7.5461 4.80647 5.77797C3.35742 8.61866 3.78375 12.1463 6.23322 14.6227C6.41536 14.8068 6.4896 15.0719 6.42961 15.3238C6.36961 15.5758 6.18384 15.779 5.93826 15.8613Z" fill="#040404"/>
</svg>
