<svg width="24" height="24" viewBox="0 0 24 24" fill="none" xmlns="http://www.w3.org/2000/svg">
<path d="M8.11805 7.08813C7.58202 7.08813 7.14132 7.52346 7.14406 8.06616C7.14569 8.60298 7.58185 9.03813 8.11905 9.03813C8.65726 9.03813 9.09405 8.60135 9.09405 8.06313C9.09405 7.51959 8.65292 7.08813 8.11805 7.08813Z" fill="#040404"/>
<path d="M13.969 11.8501C13.1402 11.8501 12.469 12.5213 12.469 13.3501V16.5001C12.469 16.9143 12.1332 17.2501 11.719 17.2501C11.3048 17.2501 10.969 16.9143 10.969 16.5001V13.3501C10.969 11.6929 12.3118 10.3501 13.969 10.3501C15.6262 10.3501 16.969 11.6929 16.969 13.3501V16.5001C16.969 16.9143 16.6332 17.2501 16.219 17.2501C15.8048 17.2501 15.469 16.9143 15.469 16.5001V13.3501C15.469 12.5213 14.7978 11.8501 13.969 11.8501Z" fill="#040404"/>
<path d="M8.87012 11.1003C8.87012 10.6861 8.53433 10.3503 8.12012 10.3503C7.7059 10.3503 7.37012 10.6861 7.37012 11.1003V16.5003C7.37012 16.9146 7.7059 17.2503 8.12012 17.2503C8.53433 17.2503 8.87012 16.9146 8.87012 16.5003V11.1003Z" fill="#040404"/>
<path fill-rule="evenodd" clip-rule="evenodd" d="M16.504 2.25H7.5C4.60079 2.25 2.25 4.60079 2.25 7.5V16.504C2.25 19.4012 4.59879 21.75 7.496 21.75H16.504C19.4011 21.75 21.75 19.4013 21.75 16.505V7.496C21.75 4.59879 19.4012 2.25 16.504 2.25ZM3.75 7.5C3.75 5.42921 5.42921 3.75 7.5 3.75H16.504C18.5728 3.75 20.25 5.42721 20.25 7.496V16.505C20.25 18.5727 18.5729 20.25 16.504 20.25H7.496C5.42721 20.25 3.75 18.5728 3.75 16.504V7.5Z" fill="#040404"/>
</svg>
