<svg width="24" height="24" viewBox="0 0 24 24" fill="none" xmlns="http://www.w3.org/2000/svg">
<path d="M21.1664 6.04392L18.5253 18.4913C18.2748 19.6687 16.8918 20.1938 15.924 19.4785L12.5988 17.023L10.9913 18.5881C10.2305 19.3277 8.95694 18.9998 8.64891 17.9843L7.3878 13.833L3.68887 12.6791C2.54397 12.3212 2.49086 10.7198 3.61078 10.2885L19.1262 4.30433C20.2557 3.86948 21.4181 4.85985 21.1664 6.04392ZM8.62458 12.8354L8.6412 12.8638C8.66886 12.9114 8.6914 12.9632 8.70816 13.0184L10.0435 17.4174L11.3768 16.119L10.5467 15.506C9.73474 14.9074 9.67379 13.7162 10.4231 13.0406L14.3403 9.50542C14.6478 9.22794 15.122 9.2523 15.3995 9.55984C15.677 9.86737 15.6526 10.3416 15.3451 10.6191L11.4279 14.1543C11.3843 14.1936 11.3878 14.2625 11.4373 14.299L16.8155 18.2721C16.9056 18.3387 17.0346 18.2898 17.058 18.1796L19.6991 5.73227C19.7032 5.71308 19.6841 5.69686 19.6656 5.70401L4.77387 11.4462L8.21304 12.5193C8.25501 12.5324 8.29501 12.5488 8.33284 12.5682L8.37682 12.5935C8.42012 12.6188 8.45986 12.6486 8.49607 12.6818C8.54745 12.7296 8.58942 12.7797 8.62458 12.8354Z" fill="#040404"/>
</svg>
