<svg width="24" height="24" viewBox="0 0 24 24" fill="none" xmlns="http://www.w3.org/2000/svg">
<path d="M12.0382 2.45605C14.5668 2.45714 16.9453 3.44373 18.7312 5.23189C20.5169 7.02086 21.5011 9.40066 21.5 11.9274C21.4978 17.1466 17.2536 21.3921 12.0379 21.3921C10.4541 21.3921 8.8998 20.996 7.51121 20.2399L7.78053 20.3791L3.44047 21.5186C2.91511 21.6564 2.43485 21.21 2.50727 20.6927L2.52744 20.595L3.68308 16.3721L3.66561 16.3405C3.00326 15.0841 2.63252 13.6942 2.58099 12.2752L2.57477 11.9199C2.57585 6.70061 6.82011 2.45605 12.0382 2.45605ZM12.0379 3.95605C7.64778 3.95605 4.07475 7.52934 4.07383 11.9211C4.07201 13.3185 4.43834 14.6919 5.13591 15.9025C5.23585 16.0759 5.26234 16.2821 5.20948 16.4752L4.31569 19.7371L7.67936 18.8556C7.82705 18.8169 7.98211 18.8244 8.12406 18.8757L8.22774 18.9223C9.39655 19.5588 10.7046 19.8921 12.0339 19.8921C16.4259 19.8921 19.9991 16.3178 20.0009 11.9268C20.0018 9.79785 19.1754 7.79953 17.6707 6.29206C16.166 4.78545 14.1687 3.95697 12.0379 3.95605Z" fill="#040404"/>
<path d="M7.97364 7.28976C8.77888 6.48452 10.1204 6.59358 10.7757 7.53586L11.5712 8.67422C12.0691 9.38321 12.0088 10.3525 11.4131 10.9883C11.6334 11.2765 11.8853 11.5624 12.1605 11.8377C12.3457 12.0229 12.5348 12.1968 12.7259 12.3575L13.0124 12.5867L13.0952 12.5137C13.7269 11.991 14.6432 11.9495 15.3248 12.4282L16.4637 13.224C17.4041 13.8769 17.5198 15.2186 16.7103 16.0264L16.35 16.3867C14.6528 18.0759 12.0129 17.2006 9.56454 14.8464L9.35756 14.6444C6.85094 12.1365 5.87631 9.3955 7.61344 7.65013L7.97364 7.28976ZM13.5634 14.1447L13.5215 14.1771L13.4325 14.2301L13.3507 14.2653L13.2543 14.293L13.1778 14.3054L13.097 14.3101L12.9941 14.3033L12.8923 14.2822L12.8417 14.2662L12.7402 14.2211L12.6935 14.1933C12.1368 13.8403 11.5963 13.3948 11.1019 12.9003C10.6113 12.4098 10.1706 11.8763 9.81954 11.3267C9.64517 11.0708 9.64669 10.7306 9.82473 10.476C9.85163 10.4373 9.88242 10.4009 9.91694 10.3674L10.3107 9.97073L10.3588 9.90902C10.4248 9.79876 10.4244 9.65157 10.3445 9.53749L9.5439 8.39182C9.42712 8.22456 9.18491 8.19982 9.0343 8.35042L8.6832 8.70157C7.73764 9.6517 8.42309 11.5843 10.4105 13.576C12.4092 15.5747 14.347 16.2639 15.2919 15.3235L15.6502 14.9652C15.7993 14.8164 15.7784 14.5743 15.607 14.4553L14.4629 13.6559C14.3286 13.5615 14.1429 13.5767 14.0293 13.6894L13.5843 14.1288L13.6233 14.0924L13.5634 14.1447Z" fill="#040404"/>
</svg>
