<svg width="24" height="24" viewBox="0 0 24 24" fill="none" xmlns="http://www.w3.org/2000/svg">
<path d="M17.9999 7.05C17.9999 7.6299 17.5298 8.1 16.9499 8.1C16.37 8.1 15.8999 7.6299 15.8999 7.05C15.8999 6.4701 16.37 6 16.9499 6C17.5298 6 17.9999 6.4701 17.9999 7.05Z" fill="#040404"/>
<path fill-rule="evenodd" clip-rule="evenodd" d="M15.0758 8.92399C13.377 7.22521 10.6228 7.22521 8.92399 8.92399C7.22521 10.6228 7.22521 13.377 8.92399 15.0758C10.6228 16.7746 13.377 16.7746 15.0758 15.0758C16.7746 13.377 16.7746 10.6228 15.0758 8.92399ZM14.0152 9.98465C12.9022 8.87165 11.0976 8.87165 9.98465 9.98465C8.87165 11.0976 8.87165 12.9022 9.98465 14.0152C11.0976 15.1282 12.9022 15.1282 14.0152 14.0152C15.1282 12.9022 15.1282 11.0976 14.0152 9.98465Z" fill="#040404"/>
<path fill-rule="evenodd" clip-rule="evenodd" d="M16.505 2.25H7.496C4.59768 2.25 2.25 4.59889 2.25 7.496V16.504C2.25 19.4023 4.59889 21.75 7.496 21.75H16.504C19.4022 21.75 21.75 19.4012 21.75 16.505V7.496C21.75 4.59779 19.4012 2.25 16.505 2.25ZM3.75 7.496C3.75 5.4271 5.42632 3.75 7.496 3.75H16.505C18.5728 3.75 20.25 5.42621 20.25 7.496V16.505C20.25 18.5728 18.5738 20.25 16.504 20.25H7.496C5.4271 20.25 3.75 18.5737 3.75 16.504V7.496Z" fill="#040404"/>
</svg>
