<svg width="40" height="40" viewBox="0 0 40 40" fill="none" xmlns="http://www.w3.org/2000/svg">
<path d="M28.333 32.083C29.0231 32.083 29.5826 32.643 29.583 33.333C29.583 34.0234 29.0234 34.583 28.333 34.583H5C4.30964 34.583 3.75 34.0234 3.75 33.333C3.75038 32.643 4.30988 32.083 5 32.083H28.333ZM32.665 5.41699C36.1824 5.41699 38.7046 8.80733 37.6943 12.1758L34.0947 24.1758L34.0938 24.1768C33.4265 26.3971 31.3816 27.917 29.0635 27.917H11.417C7.89976 27.9169 5.37752 24.5266 6.3877 21.1582L9.98828 9.1582V9.15723C10.6553 6.93754 12.6981 5.4172 15.0166 5.41699H32.665ZM15.0166 7.91699C13.8022 7.9172 12.7324 8.71363 12.3828 9.87695L8.78223 21.876C8.25281 23.6407 9.57448 25.4169 11.417 25.417H29.0635C30.2787 25.417 31.3508 24.6199 31.7002 23.457L35.2998 11.458C35.8292 9.69324 34.5076 7.91699 32.665 7.91699H29.7217L28.3457 12.5049C27.9754 13.7382 26.8389 14.584 25.5518 14.584H20.3652C18.4107 14.584 17.0113 12.6986 17.5713 10.8291L18.4453 7.91699H15.0166ZM16.8828 20.417C17.5731 20.417 18.1326 20.9768 18.1328 21.667C18.1328 22.3573 17.5731 22.917 16.8828 22.917H13.333C12.6429 22.9168 12.0831 22.3572 12.083 21.667C12.0832 20.9769 12.6429 20.4172 13.333 20.417H16.8828ZM5 10.417C5.6901 10.4172 6.24982 10.9769 6.25 11.667C6.24994 12.3572 5.69017 12.9168 5 12.917H3.33301C2.64285 12.9168 2.08306 12.3572 2.08301 11.667C2.08318 10.9769 2.64293 10.4172 3.33301 10.417H5ZM19.9658 11.5479C19.8862 11.8149 20.0866 12.084 20.3652 12.084H25.5518C25.7345 12.084 25.8981 11.9627 25.9512 11.7861L27.1123 7.91699H21.0547L19.9658 11.5479ZM6.66699 5.41699C7.35702 5.41726 7.91682 5.97695 7.91699 6.66699C7.9168 7.35703 7.35701 7.91673 6.66699 7.91699H3.33398C2.64374 7.91699 2.08417 7.35719 2.08398 6.66699C2.08416 5.97679 2.64374 5.41699 3.33398 5.41699H6.66699Z" fill="url(#paint0_linear_8958_6300)"/>
<defs>
<linearGradient id="paint0_linear_8958_6300" x1="2" y1="5.00012" x2="38" y2="35.0001" gradientUnits="userSpaceOnUse">
<stop stop-color="#00CA73"/>
<stop offset="1" stop-color="#174933"/>
</linearGradient>
</defs>
</svg>
