<svg width="24" height="24" viewBox="0 0 24 24" fill="none" xmlns="http://www.w3.org/2000/svg">
<path d="M8.65255 3.63656C10.5013 1.78781 13.4987 1.78781 15.3474 3.63656C17.1962 5.4853 17.1962 8.4827 15.3474 10.3314C13.4987 12.1802 10.5013 12.1802 8.65255 10.3314C6.80381 8.4827 6.80381 5.4853 8.65255 3.63656Z" fill="#8030A2"/>
<path d="M5.44756 14.7032C7.25496 13.7679 9.62796 13.2581 12 13.2581C14.3721 13.2581 16.7451 13.7682 18.5525 14.7036C20.3352 15.6262 21.75 17.0733 21.75 19.0001V20.0001C21.75 20.9663 20.9662 21.7501 20 21.7501H4C3.03379 21.7501 2.25 20.9663 2.25 20.0001V19.0001C2.25 17.0729 3.66478 15.6258 5.44756 14.7032Z" fill="#8030A2"/>
</svg>
